# xmcd CD database file
#
# Track frame offsets:
#	150
#	19452
#	32939
#	51369
#	68009
#	85921
#	102189
#	119210
#	136344
#
# Disc length: 2022 seconds
#
# Revision: 0
# Processed by: cddbd v1.5.2PL0 Copyright (c) Steve Scherf et al.
# Submitted via: CDex 1.70beta2
#
DISCID=8207e409
DTITLE=Cody Jinks - Collectors Item
DYEAR=2008
DGENRE=Country
TTITLE0=Lost Highway
TTITLE1=Up Too Early
TTITLE2=From Here To You
TTITLE3=Think Like You Think
TTITLE4=Walk Alone
TTITLE5=Going Fishin
TTITLE6=Fast Hand
TTITLE7=Pray For The Fighting Man
TTITLE8=We're Gonna Dance
EXTD=YEAR: 2008
EXTT0=
EXTT1=
EXTT2=
EXTT3=
EXTT4=
EXTT5=
EXTT6=
EXTT7=
EXTT8=
PLAYORDER=
